# xmcd
#
# Track frame offsets: 
#        150
#        21850
#        39814
#        65291
#        85415
#        107498
#        121070
#        142351
#        153536
#
# Disc length: 2279 seconds
#
# Revision: 0
# Processed by: cddbd v1.5.2PL0 Copyright (c) Steve Scherf et al.
# Submitted via: ExactAudioCopy v0.99pb4
#
DISCID=7008e509
DTITLE=Rockie Robbins - You And Me
DYEAR=1980
DGENRE=R&B
TTITLE0=You And Me
TTITLE1=Hang Tough
TTITLE2=After Loving You
TTITLE3=Girl, I'm Gonna Get Ya
TTITLE4=Together
TTITLE5=Point Of View
TTITLE6=Lost In Love Again
TTITLE7=I Never Knew
TTITLE8=For The Sake Of A Memory
EXTD=
EXTT0=
EXTT1=
EXTT2=
EXTT3=
EXTT4=
EXTT5=
EXTT6=
EXTT7=
EXTT8=
PLAYORDER=
